<svg id="Calque_1" data-name="Calque 1" xmlns="http://www.w3.org/2000/svg" width="142" height="96" viewBox="0 0 142 96"><defs><style>.cls-1{fill:url(#linear-gradient)}.cls-2{fill:#00afde}.cls-3{fill:#333}.cls-4{isolation:isolate}.cls-5{fill:#fff}.cls-6{fill:#ccc}.cls-7{fill:#231f20;opacity:.15}.cls-8{fill:#999}.cls-9{fill:#4d4d4d}</style><linearGradient id="linear-gradient" x1="124.9" y1="39.05" x2="12.02" y2="31.02" gradientUnits="userSpaceOnUse"><stop offset="0" stop-color="#e4e5e6"/><stop offset="1" stop-color="#565759"/></linearGradient></defs><title>logo</title><path class="cls-1" d="M141.75 21.81c-.66.34-1.33.67-2 1-1.26.63-2.54 1.23-3.82 1.84C133 26 130.06 27.28 127 28.5a223 223 0 0 1-33.35 10.42c-19.15 4.45-39.7 7-59.37 5.8-7.67-.45-16.21-1.74-22.87-5.3l-9.74 6c3.82 2.32 9 3.36 13.88 4.06a136.84 136.84 0 0 0 24.49.94 235.44 235.44 0 0 0 64-11.72 200 200 0 0 0 28.78-12l5.63-3.11-.61.35q-3.33 1.81 3.91-2.13z"/><path class="cls-2" d="M32.67 66.32h-22.2L8.4 88.72h22.2l.7-7.61h8.23L39 87q-.45 4.93-2.46 6.65t-7.08 1.71H8.34q-5.07 0-6.76-1.71T.34 87l1.72-18.63q.46-4.94 2.46-6.65T11.6 60h21.1q5.07 0 6.76 1.71t1.24 6.65L40.27 73h-8.22zm14.99 29.04L50.93 60h30.28q7.94 0 7.31 6.85l-.72 7.88q-.63 6.85-8.58 6.85H57l-1.25 13.78zM77 66H58.46l-.88 9.53h18.5a6.28 6.28 0 0 0 2.71-.42A2.89 2.89 0 0 0 80 72.72l.35-3.83a2.4 2.4 0 0 0-.8-2.43A5.73 5.73 0 0 0 77 66zm18.05 29.36L98.31 60h36.17l-.56 6H106l-.73 7.88h16.3l-.56 6H104.7l-.81 8.77h28.3l-.61 6.65z"/><path class="cls-3" d="M99.18 54.83l.6-6.5h1.51l-.49 5.28h4.87l-.11 1.22zm10.41 0l.27-2.91-3-3.59h2l2 2.49 2.47-2.49h1.78l-3.69 3.55-.27 2.95zm6.97-4.96a1.79 1.79 0 0 1 .45-1.22 2 2 0 0 1 1.3-.31h4.79a1.78 1.78 0 0 1 1.24.31 1.54 1.54 0 0 1 .23 1.22l-.31 3.43a1.8 1.8 0 0 1-.45 1.22 2 2 0 0 1-1.3.32h-4.79a1.78 1.78 0 0 1-1.24-.32 1.57 1.57 0 0 1-.23-1.22zm1.17 3.74h5l.38-4.12h-5zm9.55 1.22l.6-6.5h1l4.22 3.83a6 6 0 0 1 .68.71c0-.6 0-1 0-1.12l.31-3.41h1.36l-.6 6.5h-1l-4.4-4a4.09 4.09 0 0 1-.49-.53c0 .42 0 .76 0 1l-.32 3.51z"/><g class="cls-4"><path class="cls-5" d="M94.3 12.39c-6.31 5.59-3 10.71 7.33 11.42s23.87-3.23 30.18-8.81 3-10.71-7.33-11.42-23.87 3.22-30.18 8.81"/></g><g class="cls-4"><path class="cls-6" d="M92.49 9.54c-6.31 5.59-3 10.71 7.33 11.43s23.87-3.23 30.18-8.82 3-10.7-7.33-11.42S98.8 4 92.49 9.54"/></g><path class="cls-7" d="M112.46 7.33A51.24 51.24 0 0 0 90 11.47c-4.3 5-.75 9.35 8.73 10a51.19 51.19 0 0 0 22.44-4.14c4.32-5 .77-9.33-8.71-10z"/><g class="cls-4"><path class="cls-5" d="M68.51 20.07c-6.31 5.59-3 10.71 7.33 11.42s23.87-3.23 30.16-8.82 3-10.67-7.31-11.42-23.87 3.23-30.18 8.82"/></g><g class="cls-4"><path class="cls-8" d="M66.62 17.44C60.32 23 63.6 28.15 74 28.87s23.83-3.23 30.14-8.87 3-10.71-7.33-11.42-23.87 3.23-30.18 8.82"/></g><path class="cls-7" d="M87 14.41a51.14 51.14 0 0 0-21.83 3.89c-5.71 5.43-2.35 10.33 7.76 11a51.12 51.12 0 0 0 21.83-3.89c5.71-5.41 2.35-10.3-7.76-11z"/><g class="cls-4"><path class="cls-5" d="M41.61 23.54c-6.31 5.59-3 10.71 7.33 11.42s23.87-3.23 30.18-8.82 3-10.71-7.33-11.42-23.87 3.23-30.17 8.82"/></g><g class="cls-4"><path class="cls-9" d="M39.87 20.69c-6.31 5.59-3 10.71 7.33 11.42s23.87-3.23 30.18-8.82 3-10.7-7.33-11.42-23.87 3.23-30.18 8.82"/></g><path class="cls-7" d="M59.09 18.1a50.92 50.92 0 0 0-20.77 3.46c-5.75 5.44-2.4 10.34 7.73 11a50.93 50.93 0 0 0 20.78-3.46c5.75-5.4 2.39-10.3-7.74-11z"/><g class="cls-4"><path class="cls-5" d="M12.85 21.5c-6.31 5.59-3 10.7 7.33 11.42S44 29.69 50.36 24.1s3-10.71-7.33-11.42-23.88 3.22-30.18 8.82"/></g><g class="cls-4"><path class="cls-2" d="M10.91 18.63c-6.31 5.59-3 10.7 7.33 11.42s23.87-3.23 30.18-8.82 3-10.71-7.33-11.42S17.21 13 10.91 18.63"/></g></svg>